<?xml version="1.0" encoding="UTF-8"?>
<svg version="1.1" xmlns="http://www.w3.org/2000/svg" width="513" height="180">
<path d="M0 0 C48.9766198 0 48.9766198 0 56.59375 7.34765625 C60.95694343 12.47440853 61.49904821 17.81529232 61.27734375 24.2890625 C60.64424682 30.47736205 59.05134165 34.38469015 54.3125 38.5 C53.22092299 39.34975767 52.12087757 40.18928307 51 41 C51.53109375 41.37511719 52.0621875 41.75023437 52.609375 42.13671875 C59.13025558 46.86078735 63.55589853 50.72923705 65 59 C65.32999488 67.65319909 63.60561561 74.30904179 58 81 C49.8044317 89.24788044 37.2472804 90.07542986 26.18920898 90.24658203 C17.42001269 90.25989318 8.77107449 89.5847383 0 89 C0 59.63 0 30.26 0 0 Z M19 14 C19 21.59 19 29.18 19 37 C30.34986798 37.27948602 30.34986798 37.27948602 40 32.3125 C41.93385737 27.84045484 42.68285378 23.80755412 40.9375 19.1875 C37.64510776 15.47028296 34.27648108 14.10250116 29.3515625 13.70703125 C24.17578125 13.85351562 24.17578125 13.85351562 19 14 Z M19 50 C19 58.25 19 66.5 19 75 C31.75626967 75.7784413 31.75626967 75.7784413 42.375 69.8125 C44.46952058 66.18736822 45.31229343 63.19130654 45 59 C43.60465471 55.63848635 42.38049859 53.78673575 39.18359375 51.96484375 C32.58940117 49.35388352 25.99511062 49.77910177 19 50 Z " fill="#AAAAAA" transform="translate(332,54)"/>
<path d="M0 0 C1.55159569 -0.00450165 1.55159569 -0.00450165 3.13453674 -0.00909424 C4.2502153 0.00325256 5.36589386 0.01559937 6.51538086 0.02832031 C8.23319008 0.03113007 8.23319008 0.03113007 9.98570251 0.03399658 C12.40749013 0.04072214 14.82926679 0.0546465 17.25097656 0.07519531 C20.96877067 0.10634933 24.68614104 0.11616535 28.40405273 0.12207031 C30.75366731 0.13124009 33.10327755 0.14161577 35.45288086 0.15332031 C36.57058365 0.15757019 37.68828644 0.16182007 38.83985901 0.16619873 C39.87110397 0.17580627 40.90234894 0.18541382 41.96484375 0.1953125 C43.33027061 0.2055545 43.33027061 0.2055545 44.72328186 0.21600342 C46.91772461 0.35644531 46.91772461 0.35644531 48.91772461 1.35644531 C49.83788308 4.11692074 50.11039706 5.990068 50.16772461 8.85644531 C50.19350586 9.62988281 50.21928711 10.40332031 50.24584961 11.20019531 C49.83041725 13.93017936 49.03914501 14.63805392 46.91772461 16.35644531 C43.98374778 16.68776413 41.25062979 16.84514637 38.31225586 16.86816406 C37.47305099 16.88611526 36.63384613 16.90406647 35.76921082 16.92256165 C33.08959982 16.97673094 30.41016759 17.01058104 27.73022461 17.04394531 C25.9131424 17.0771126 24.09608381 17.11160171 22.27905273 17.14746094 C17.82540556 17.23246104 13.37181202 17.29924033 8.91772461 17.35644531 C7.73090735 20.91689708 7.82082629 23.79452869 7.85522461 27.54394531 C7.86424805 28.81625 7.87327148 30.08855469 7.88256836 31.39941406 C7.89416992 32.37523437 7.90577148 33.35105469 7.91772461 34.35644531 C9.22225586 34.32164063 10.52678711 34.28683594 11.87084961 34.25097656 C25.77304734 33.98874629 38.80744291 34.05550527 49.63256836 43.91894531 C55.26516788 49.86829248 57.04636254 56.27782258 57.29272461 64.35644531 C57.01465929 73.48625659 54.32186909 80.73496561 47.91772461 87.35644531 C45.40041836 89.4010928 42.82542371 90.92961899 39.91772461 92.35644531 C39.28608398 92.67613281 38.65444336 92.99582031 38.00366211 93.32519531 C29.3023194 96.95355443 17.16484628 96.99073259 8.35522461 93.73144531 C-1.36176797 89.01317727 -9.20451337 81.6211095 -13.08227539 71.35644531 C-12.69203149 66.96620141 -12.69203149 66.96620141 -11.08227539 65.35644531 C-6.28719786 64.61725776 -1.85572801 64.42503992 2.91772461 65.35644531 C5.4066456 67.68285943 6.81270224 69.98606153 8.50366211 72.93066406 C9.83746993 75.54829086 9.83746993 75.54829086 12.54272461 77.48144531 C19.26540638 79.22436281 26.17883819 79.63144417 32.54272461 76.66894531 C36.39245658 72.92052207 38.0754323 70.31503763 38.29272461 64.91894531 C38.12603607 60.74478649 37.39217289 57.8206729 34.91772461 54.35644531 C29.16129462 50.64674599 23.27186363 50.25056751 16.56616211 50.18066406 C15.38538086 50.15681641 14.20459961 50.13296875 12.98803711 50.10839844 C10.51686123 50.06529653 8.04544965 50.03411909 5.57397461 50.01464844 C4.39577148 49.98693359 3.21756836 49.95921875 2.00366211 49.93066406 C0.93164551 49.91608154 -0.14037109 49.90149902 -1.24487305 49.88647461 C-4.08227539 49.35644531 -4.08227539 49.35644531 -6.43164062 47.91259766 C-8.94390436 44.02213747 -8.63574737 40.42258436 -8.57836914 35.88378906 C-8.58055199 34.50460045 -8.58055199 34.50460045 -8.58277893 33.09754944 C-8.58112101 31.15671617 -8.56957162 29.21586961 -8.54882812 27.27514648 C-8.51984442 24.30102887 -8.5282269 21.3286906 -8.54125977 18.35449219 C-8.53502313 16.4684158 -8.52663278 14.58234505 -8.51586914 12.69628906 C-8.51880478 11.80562241 -8.52174042 10.91495575 -8.52476501 9.99729919 C-8.50573875 8.75569786 -8.50573875 8.75569786 -8.48632812 7.48901367 C-8.48092514 6.76161484 -8.47552216 6.034216 -8.46995544 5.28477478 C-7.50549551 0.48752896 -4.40620691 -0.01763116 0 0 Z " fill="#FA8307" transform="translate(56.082275390625,49.6435546875)"/>
<path d="M0 0 C0.22137393 2.62697064 0.28162025 5.00893964 0.1875 7.625 C0.16719727 8.68460938 0.16719727 8.68460938 0.14648438 9.765625 C0.1111104 11.51074128 0.05730221 13.25546608 0 15 C-7.55187696 14.1040146 -7.55187696 14.1040146 -10.23828125 13.48046875 C-14.00235659 12.82561547 -17.68603801 12.77634861 -21.5 12.75 C-22.24636719 12.729375 -22.99273437 12.70875 -23.76171875 12.6875 C-28.36885024 12.65488314 -31.20440136 13.10950565 -35 16 C-36.38142556 17.16377902 -36.38142556 17.16377902 -36.25 20.375 C-36.34679257 23.85334348 -36.34679257 23.85334348 -34.77734375 25.5859375 C-32.71232872 27.22887253 -30.73427216 28.19673309 -28.3125 29.25 C-27.343125 29.68054688 -26.37375 30.11109375 -25.375 30.5546875 C-22.92392243 31.60433878 -20.46905312 32.62755516 -18 33.6328125 C-8.43197103 37.57759495 0.96013718 41.53838004 5.37890625 51.6328125 C7.38754465 59.28837771 7.01997667 68.07585767 3 75 C-2.03171169 82.92120949 -9.85625805 86.49656483 -18.79589844 88.61401367 C-22.75358933 89.3070918 -26.67961105 89.29368166 -30.6875 89.25 C-31.56019531 89.24540771 -32.43289063 89.24081543 -33.33203125 89.23608398 C-41.74634972 89.1189599 -49.84276732 88.13550195 -58 86 C-58.90375653 79.67370431 -58.90375653 74.32629569 -58 68 C-56.6875 68.29166667 -55.375 68.58333333 -54.0625 68.875 C-52.81146484 69.14570313 -52.81146484 69.14570313 -51.53515625 69.421875 C-50.01289759 69.76901565 -48.49624968 70.14533148 -46.99609375 70.578125 C-41.78500318 72.00582105 -36.68570616 72.24252443 -31.3125 72.3125 C-30.58740234 72.33006348 -29.86230469 72.34762695 -29.11523438 72.36572266 C-24.3656817 72.36027092 -21.10408648 71.62735372 -17 69 C-14.65450326 65.48175489 -14.42008597 64.14224306 -15 60 C-18.3700191 55.06532918 -22.96992828 53.58991052 -28.3984375 51.44140625 C-32.60180114 49.759149 -36.74679566 47.98304953 -40.875 46.125 C-41.58817383 45.82166748 -42.30134766 45.51833496 -43.03613281 45.20581055 C-49.12491683 42.43214228 -53.13719029 38.45950374 -56.3125 32.5625 C-58.43102809 24.66616804 -58.66841071 17.24384544 -54.87890625 9.796875 C-50.49503737 3.28937558 -44.4066298 -0.87536319 -36.81640625 -2.8125 C-25.89067172 -4.66562812 -9.57134524 -6.38089683 0 0 Z " fill="#AAAAAA" transform="translate(465,56)"/>
<path d="M0 0 C3.5625 0.625 3.5625 0.625 5.5625 2.625 C5.77955637 5.03179241 5.87384857 7.32719803 5.88134766 9.73681641 C5.89139328 10.46862625 5.9014389 11.2004361 5.91178894 11.954422 C5.94273236 14.37846068 5.95968674 16.80238838 5.9765625 19.2265625 C5.99526521 20.90523237 6.01483794 22.58389275 6.0352478 24.26254272 C6.08666995 28.68479835 6.12624152 33.10708449 6.16339111 37.52947998 C6.20336774 42.04056407 6.25448892 46.55152013 6.3046875 51.0625 C6.40156607 59.91657686 6.48593249 68.77072584 6.5625 77.625 C7.45453125 77.66238281 8.3465625 77.69976562 9.265625 77.73828125 C10.43609375 77.80402344 11.6065625 77.86976562 12.8125 77.9375 C13.97265625 77.99550781 15.1328125 78.05351563 16.328125 78.11328125 C19.69453315 78.6458893 21.17340906 79.24134623 23.5625 81.625 C24.05859375 84 24.05859375 84 24 86.625 C23.99871094 87.49125 23.99742187 88.3575 23.99609375 89.25 C23.47219504 92.11964341 22.84402594 92.85518313 20.5625 94.625 C18.36169434 94.9992218 18.36169434 94.9992218 15.77148438 94.99731445 C14.31482361 95.00665764 14.31482361 95.00665764 12.82873535 95.01618958 C11.2583551 95.00237495 11.2583551 95.00237495 9.65625 94.98828125 C8.58000366 94.98877975 7.50375732 94.98927826 6.39489746 94.98979187 C4.11855219 94.9874505 1.84220438 94.97771835 -0.43408203 94.96118164 C-3.92373743 94.93759303 -7.41262892 94.94061996 -10.90234375 94.94726562 C-13.11198373 94.94168886 -15.32162049 94.93457899 -17.53125 94.92578125 C-18.57817017 94.92669266 -19.62509033 94.92760406 -20.70373535 94.92854309 C-22.16039612 94.91424507 -22.16039612 94.91424507 -23.64648438 94.8996582 C-24.92863831 94.89274712 -24.92863831 94.89274712 -26.23669434 94.88569641 C-28.4375 94.625 -28.4375 94.625 -31.4375 92.625 C-31.8359375 90.12890625 -31.8359375 90.12890625 -31.8125 87.1875 C-31.82023437 86.21941406 -31.82796875 85.25132812 -31.8359375 84.25390625 C-31.4375 81.625 -31.4375 81.625 -28.4375 78.625 C-23.1575 78.625 -17.8775 78.625 -12.4375 78.625 C-12.4375 61.465 -12.4375 44.305 -12.4375 26.625 C-16.0675 27.945 -19.6975 29.265 -23.4375 30.625 C-28.0625 30.9375 -28.0625 30.9375 -31.4375 30.625 C-32.4375 29.625 -32.4375 29.625 -32.53515625 26.68359375 C-32.52355469 25.48863281 -32.51195313 24.29367188 -32.5 23.0625 C-32.49097656 21.86496094 -32.48195313 20.66742188 -32.47265625 19.43359375 C-32.46105469 18.50675781 -32.44945313 17.57992187 -32.4375 16.625 C-31.53 16.233125 -30.6225 15.84125 -29.6875 15.4375 C-29.05070312 15.1590625 -28.41390625 14.880625 -27.7578125 14.59375 C-26.06109566 13.88535644 -24.34402775 13.22517081 -22.6171875 12.59375 C-17.07219368 10.49487766 -12.9516647 8.48813533 -8.6875 4.3125 C-5.78972876 1.50973765 -4.09601805 0.08089084 0 0 Z " fill="#FB8204" transform="translate(152.4375,49.375)"/>
<path d="M0 0 C6.27 0 12.54 0 19 0 C19 24.42 19 48.84 19 74 C31.21 74 43.42 74 56 74 C57 75 57 75 57.1328125 77.90625 C57.12894531 79.68515625 57.12894531 79.68515625 57.125 81.5 C57.12886719 83.27890625 57.12886719 83.27890625 57.1328125 85.09375 C57 88 57 88 56 89 C54.2507128 89.09365006 52.49763746 89.11744438 50.74584961 89.11352539 C49.60901733 89.11340454 48.47218506 89.11328369 47.30090332 89.11315918 C46.09687866 89.10804321 44.892854 89.10292725 43.65234375 89.09765625 C42.55249146 89.09664917 41.45263916 89.09564209 40.31945801 89.09460449 C36.19212814 89.08935362 32.06481307 89.07539251 27.9375 89.0625 C18.718125 89.041875 9.49875 89.02125 0 89 C0 59.63 0 30.26 0 0 Z " fill="#AAAAAA" transform="translate(184,54)"/>
<path d="M0 0 C4.06714726 4.17603152 6.57620244 8.64331176 9.0625 13.875 C9.38798828 14.54402344 9.71347656 15.21304688 10.04882812 15.90234375 C10.70434198 17.24971678 11.35477396 18.59957452 12 19.9519043 C12.68939621 21.36385371 13.4046759 22.76335803 14.140625 24.15161133 C14.50800781 24.84794678 14.87539063 25.54428223 15.25390625 26.26171875 C15.59107666 26.88522217 15.92824707 27.50872559 16.27563477 28.15112305 C17.50652192 31.29285154 16.90070909 33.8475182 16 37 C13.36495388 38.31752306 11.35548948 38.15619123 8.40454102 38.19287109 C6.64745567 38.21696548 6.64745567 38.21696548 4.85487366 38.24154663 C-0.49462433 38.28584722 -5.84397484 38.32748532 -11.19360352 38.35009766 C-14.72259505 38.36676782 -18.25065666 38.41156761 -21.77929592 38.4624691 C-25.14317932 38.5041731 -28.50697596 38.5112724 -31.87109375 38.5234375 C-33.13988876 38.54610687 -34.40868378 38.56877625 -35.71592712 38.59213257 C-36.89046951 38.58928253 -38.0650119 38.5864325 -39.27514648 38.58349609 C-40.82829811 38.59562637 -40.82829811 38.59562637 -42.41282654 38.60800171 C-45 38 -45 38 -46.86979675 35.59512329 C-48.167256 32.61595408 -48.15427399 31.77787211 -46.9921875 28.8125 C-46.53924316 27.64654297 -46.53924316 27.64654297 -46.07714844 26.45703125 C-44.22374177 22.22931485 -42.25310698 18.09644618 -40.125 14 C-39.70347656 13.14277344 -39.28195312 12.28554687 -38.84765625 11.40234375 C-38.42613281 10.58894531 -38.00460937 9.77554688 -37.5703125 8.9375 C-37.19664551 8.20402344 -36.82297852 7.47054687 -36.43798828 6.71484375 C-34.48222467 4.38253753 -32.97316136 4.29547837 -30 4 C-27.91594093 4.02969514 -25.83219276 4.09445515 -23.75 4.1875 C-18.2897947 4.25521393 -14.85958197 3.36300695 -10.05859375 0.9140625 C-6.38612539 -0.71659708 -3.9797517 -0.66329195 0 0 Z " fill="#000000" transform="translate(302,100)"/>
<path d="M0 0 C1.1446875 -0.01224609 2.289375 -0.02449219 3.46875 -0.03710938 C5.11230469 -0.04000977 5.11230469 -0.04000977 6.7890625 -0.04296875 C7.7888916 -0.04707764 8.7887207 -0.05118652 9.81884766 -0.05541992 C12.375 0.1875 12.375 0.1875 15.375 2.1875 C15.0625 4.125 15.0625 4.125 14.375 6.1875 C13.385 6.5175 12.395 6.8475 11.375 7.1875 C10.31256256 26.09888639 26.3848379 47.11637527 35.47265625 62.82421875 C39.21613282 69.59433596 40.75273067 75.43923693 39.375 83.1875 C36.94912894 87.59000675 33.3846397 90.24179106 28.56721497 91.7555542 C25.94010079 92.27319091 23.47809559 92.33001996 20.79956055 92.34863281 C19.1221302 92.36304413 19.1221302 92.36304413 17.41081238 92.37774658 C15.60451103 92.3841214 15.60451103 92.3841214 13.76171875 92.390625 C12.51880569 92.39632507 11.27589264 92.40202515 9.99531555 92.40789795 C7.36513113 92.41734402 4.73493489 92.42388037 2.10473633 92.42773438 C-0.58485446 92.43212408 -3.27412535 92.44603658 -5.96362305 92.46875 C-9.84694132 92.4992429 -13.72985652 92.50978585 -17.61328125 92.515625 C-19.41047356 92.5341452 -19.41047356 92.5341452 -21.24397278 92.55303955 C-28.72252126 92.53313798 -34.10570065 92.1511205 -40 87.1875 C-43.16434205 83.29292517 -43.08870501 79.07720407 -43.01953125 74.25390625 C-42.28939003 68.57904628 -39.40348556 64.10796546 -36.625 59.1875 C-34.59364339 55.36456229 -32.60167751 51.52077293 -30.60253906 47.6809082 C-28.40208723 43.47993273 -26.14691941 39.33137708 -23.7578125 35.234375 C-18.41431397 25.91674246 -14.286468 18.26211941 -16.625 7.1875 C-17.285 6.5275 -17.945 5.8675 -18.625 5.1875 C-18.25 3.0625 -18.25 3.0625 -17.625 1.1875 C-11.76219512 -0.15714925 -5.98757283 0.00339432 0 0 Z M-8.625 7.1875 C-8.66753906 9.24613281 -8.71007812 11.30476563 -8.75390625 13.42578125 C-9.31909707 21.21992919 -11.72467131 26.66757985 -15.5625 33.375 C-16.14572021 34.44218262 -16.72894043 35.50936523 -17.32983398 36.60888672 C-18.51355004 38.77453252 -19.7065629 40.93512478 -20.90917969 43.09033203 C-23.4191967 47.62107702 -25.80049289 52.21616837 -28.1875 56.8125 C-28.95748863 58.28497876 -29.72949472 59.75640503 -30.50390625 61.2265625 C-30.85541748 61.89421631 -31.20692871 62.56187012 -31.5690918 63.24975586 C-32.6174485 65.1736419 -33.73616807 67.04181893 -34.8671875 68.91796875 C-36.47634961 71.91101027 -37.19348014 73.54406039 -37.1875 76.875 C-37.20941406 77.60074219 -37.23132813 78.32648438 -37.25390625 79.07421875 C-36.29302043 82.30303384 -34.37638271 83.34079711 -31.625 85.1875 C-28.78471834 85.7793363 -28.78471834 85.7793363 -25.72070312 85.68920898 C-23.97364075 85.70328041 -23.97364075 85.70328041 -22.19128418 85.71763611 C-20.9422229 85.70640213 -19.69316162 85.69516815 -18.40625 85.68359375 C-17.11561646 85.68504898 -15.82498291 85.68650421 -14.49523926 85.68800354 C-11.76826491 85.68938516 -9.04181803 85.67687054 -6.31494141 85.65405273 C-2.82786739 85.6256678 0.65833084 85.62840809 4.14546967 85.64114285 C7.4824874 85.6497891 10.81924702 85.63464684 14.15625 85.62109375 C15.40531128 85.62402939 16.65437256 85.62696503 17.94128418 85.62998962 C19.10599243 85.61730545 20.27070068 85.60462128 21.47070312 85.59155273 C22.49264771 85.58614975 23.51459229 85.58074677 24.56750488 85.57518005 C27.85577797 85.12111056 29.71420995 84.14801678 32.375 82.1875 C34.4786333 79.03205005 34.68345016 77.99151217 34.03417969 74.36816406 C32.55412702 69.47193056 29.92691415 65.04120808 27.5 60.5625 C26.95730469 59.53898437 26.41460937 58.51546875 25.85546875 57.4609375 C23.46237067 52.96729612 20.99761045 48.55103431 18.375 44.1875 C17.64507261 42.86156078 16.92576283 41.5297043 16.21875 40.19140625 C15.83589844 39.46759766 15.45304687 38.74378906 15.05859375 37.99804688 C14.47271484 36.88526367 14.47271484 36.88526367 13.875 35.75 C13.28912109 34.64301758 13.28912109 34.64301758 12.69140625 33.51367188 C11.92776136 32.06737473 11.1689163 30.6185314 10.4152832 29.16699219 C9.52098154 27.46527947 8.58292729 25.78668826 7.63671875 24.11328125 C5.30915505 18.71592766 5.6492618 13.00185022 5.375 7.1875 C0.755 7.1875 -3.865 7.1875 -8.625 7.1875 Z " fill="#020202" transform="translate(287.625,54.8125)"/>
<path d="M0 0 C3.64184981 2.55704348 4.77792202 4.22272709 6 8.5 C6 12.48112565 5.5290797 13.96510436 3 17 C-0.01757067 19.51464223 -1.54477949 19.99187106 -5.5 20.0625 C-10.03251036 18.68655935 -11.51527166 16.99062431 -14 13 C-14.7709911 8.88804746 -14.19728042 7.34852874 -12.125 3.6875 C-8.77246278 -0.55247354 -5.2074391 -0.86790652 0 0 Z " fill="#010101" transform="translate(290,34)"/>
<path d="M0 0 C0.66 0.33 1.32 0.66 2 1 C1.34 2.32 0.68 3.64 0 5 C0.33 5.33 0.66 5.66 1 6 C1.09311889 7.50418739 1.11746028 9.01271356 1.11352539 10.51977539 C1.11344986 11.48069595 1.11337433 12.44161652 1.11329651 13.43165588 C1.10813522 14.476436 1.10297394 15.52121613 1.09765625 16.59765625 C1.0962413 17.66165146 1.09482635 18.72564667 1.09336853 19.82188416 C1.08775064 23.23545083 1.07519511 26.648953 1.0625 30.0625 C1.05748731 32.37044176 1.052924 34.67838455 1.04882812 36.98632812 C1.0377754 42.65757426 1.02101987 48.32878253 1 54 C-3.56926868 55.60572327 -7.52748896 56.35061258 -12.375 56.625 C-13.62023437 56.69976562 -14.86546875 56.77453125 -16.1484375 56.8515625 C-17.08945313 56.90054688 -18.03046875 56.94953125 -19 57 C-19.33 60.3 -19.66 63.6 -20 67 C-17.134474 67.95517533 -15.23478679 68.15054198 -12.25317383 68.20532227 C-10.81201958 68.2352401 -10.81201958 68.2352401 -9.3417511 68.26576233 C-8.30729355 68.28247482 -7.272836 68.29918732 -6.20703125 68.31640625 C-4.61528328 68.3475779 -4.61528328 68.3475779 -2.99137878 68.37937927 C0.40151437 68.44481238 3.7944855 68.50373093 7.1875 68.5625 C9.48633622 68.60569114 11.78516453 68.64930562 14.08398438 68.69335938 C19.7225736 68.8004874 25.36124056 68.90226551 31 69 C31 69.33 31 69.66 31 70 C24.07661048 70.05063836 17.15326859 70.08570749 10.22973633 70.10986328 C7.87359838 70.11993155 5.51747296 70.13358706 3.16137695 70.15087891 C-0.22187386 70.17509076 -3.60495972 70.18647478 -6.98828125 70.1953125 C-8.57277824 70.21079636 -8.57277824 70.21079636 -10.18928528 70.22659302 C-11.17007553 70.22674408 -12.15086578 70.22689514 -13.16137695 70.22705078 C-14.02519485 70.231492 -14.88901276 70.23593323 -15.77900696 70.24050903 C-18 70 -18 70 -21 68 C-21.3984375 65.50390625 -21.3984375 65.50390625 -21.375 62.5625 C-21.38273437 61.59441406 -21.39046875 60.62632812 -21.3984375 59.62890625 C-21 57 -21 57 -18 54 C-12.72 54 -7.44 54 -2 54 C-2 36.84 -2 19.68 -2 2 C-1.34 2 -0.68 2 0 2 C0 1.34 0 0.68 0 0 Z " fill="#ED8B1E" transform="translate(142,74)"/>
<path d="M0 0 C0.33 0 0.66 0 1 0 C1.9012994 8.08527548 2.12442142 16.05674103 2.0625 24.1875 C2.05798828 25.33025391 2.05347656 26.47300781 2.04882812 27.65039062 C2.03718268 30.4336511 2.02082997 33.21679572 2 36 C2.66 36 3.32 36 4 36 C3.67 38.64 3.34 41.28 3 44 C4.41478638 43.93099487 4.41478638 43.93099487 5.8581543 43.8605957 C9.37083711 43.69690836 12.88352859 43.54762837 16.3972168 43.40795898 C17.91537028 43.34468236 19.43329883 43.27573697 20.95092773 43.20092773 C23.13750733 43.09414296 25.32409563 43.0080378 27.51171875 42.92578125 C28.82615967 42.86817627 30.14060059 42.81057129 31.49487305 42.7512207 C35.23768409 43.01686983 37.08489674 43.67541267 40 46 C40 46.66 40 47.32 40 48 C38.19982422 47.76216797 38.19982422 47.76216797 36.36328125 47.51953125 C32.35365509 47.07122568 28.38895138 46.89932696 24.35546875 46.82421875 C22.59879883 46.78844727 22.59879883 46.78844727 20.80664062 46.75195312 C18.37453387 46.70863984 15.94218086 46.67757977 13.50976562 46.65820312 C12.34509766 46.63048828 11.18042969 46.60277344 9.98046875 46.57421875 C8.92754639 46.55963623 7.87462402 46.54505371 6.78979492 46.5300293 C4 46 4 46 1.65063477 44.56274414 C-0.87822541 40.63648394 -0.49572645 36.99373681 -0.390625 32.421875 C-0.38496521 31.4953009 -0.37930542 30.56872681 -0.37347412 29.61407471 C-0.35110921 26.65885438 -0.30091262 23.70485295 -0.25 20.75 C-0.22993515 18.7448092 -0.21168435 16.73959936 -0.1953125 14.734375 C-0.151244 9.82244806 -0.08221555 4.91143058 0 0 Z " fill="#EE861D" transform="translate(48,53)"/>
<path d="M0 0 C2.3631167 2.12680503 2.92843783 3.41319022 3.3125 6.5625 C3 9 3 9 1 12 C-1.8125 13 -1.8125 13 -5 13 C-7.9375 10.875 -7.9375 10.875 -10 8 C-10 5.05861032 -9.40882057 3.62398929 -7.8125 1.1875 C-5.08206067 -0.60140853 -3.18261281 -0.46413104 0 0 Z " fill="#010101" transform="translate(305,23)"/>
<path d="M0 0 C2.9375 0.75 2.9375 0.75 4.9375 2.75 C5.480879 8.72716895 5.480879 8.72716895 3.875 11.75 C0.70953476 13.38378851 -1.71270286 12.60267564 -5.0625 11.75 C-7.0625 8.75 -7.0625 8.75 -6.875 5.1875 C-5.81721331 0.71224863 -4.63605151 -0.37845318 0 0 Z " fill="#010101" transform="translate(281.0625,90.25)"/>
<path d="M0 0 C6.6394761 0 6.6394761 0 9.6484375 2.8125 C10.79799101 4.60185026 11.90294766 6.42065749 12.9609375 8.265625 C14.97591052 11.71668376 16.52876109 12.6191003 20.375 13.6875 C24.70449722 14.19502479 29.02058764 14.50014398 33.375 14.6875 C30.91503225 17.14746775 30.13881446 16.98426247 26.75 17 C21.67114381 16.90417252 17.9583154 15.85415819 13.375 13.6875 C13.045 13.0275 12.715 12.3675 12.375 11.6875 C11.385 11.0275 10.395 10.3675 9.375 9.6875 C6.6875 7.1875 6.6875 7.1875 4.375 4.6875 C4.375 4.0275 4.375 3.3675 4.375 2.6875 C0.745 3.0175 -2.885 3.3475 -6.625 3.6875 C-6.295 5.9975 -5.965 8.3075 -5.625 10.6875 C-7.1875 9 -7.1875 9 -8.625 6.6875 C-8.02931699 0.28390765 -6.10529982 0.39202451 0 0 Z " fill="#E79229" transform="translate(51.625,114.3125)"/>
<path d="M0 0 C1.08667969 0.02707031 2.17335937 0.05414063 3.29296875 0.08203125 C4.54013672 0.13423828 4.54013672 0.13423828 5.8125 0.1875 C3.22323669 2.77676331 1.78544721 2.56148043 -1.8125 2.8125 C-2.81539063 2.88726562 -3.81828125 2.96203125 -4.8515625 3.0390625 C-6.00785156 3.11253906 -6.00785156 3.11253906 -7.1875 3.1875 C-7.5175 6.4875 -7.8475 9.7875 -8.1875 13.1875 C-5.321974 14.14267533 -3.42228679 14.33804198 -0.44067383 14.39282227 C1.00048042 14.4227401 1.00048042 14.4227401 2.4707489 14.45326233 C3.50520645 14.46997482 4.539664 14.48668732 5.60546875 14.50390625 C7.19721672 14.5350779 7.19721672 14.5350779 8.82112122 14.56687927 C12.21401437 14.63231238 15.6069855 14.69123093 19 14.75 C21.29883622 14.79319114 23.59766453 14.83680562 25.89648438 14.88085938 C31.5350736 14.9879874 37.17374056 15.08976551 42.8125 15.1875 C42.8125 15.5175 42.8125 15.8475 42.8125 16.1875 C35.88911048 16.23813836 28.96576859 16.27320749 22.04223633 16.29736328 C19.68609838 16.30743155 17.32997296 16.32108706 14.97387695 16.33837891 C11.59062614 16.36259076 8.20754028 16.37397478 4.82421875 16.3828125 C3.23972176 16.39829636 3.23972176 16.39829636 1.62321472 16.41409302 C0.64242447 16.41424408 -0.33836578 16.41439514 -1.34887695 16.41455078 C-2.21269485 16.418992 -3.07651276 16.42343323 -3.96650696 16.42800903 C-6.1875 16.1875 -6.1875 16.1875 -9.1875 14.1875 C-9.5859375 11.69140625 -9.5859375 11.69140625 -9.5625 8.75 C-9.57023437 7.78191406 -9.57796875 6.81382812 -9.5859375 5.81640625 C-9.1875 3.1875 -9.1875 3.1875 -8.05078125 1.3515625 C-5.33462754 -0.34532179 -3.16773024 -0.10218485 0 0 Z " fill="#DB8B30" transform="translate(130.1875,127.8125)"/>
<path d="M0 0 C4.99108007 3.46602783 8.08955868 7.37620395 9.59375 13.36328125 C10.84128318 21.4602514 10.64581772 29.54112521 7 37 C6.34 37.66 5.68 38.32 5 39 C5.875 33.125 5.875 33.125 7 32 C7.15620555 30.58672053 7.25056173 29.1664541 7.31640625 27.74609375 C7.35830078 26.89208984 7.40019531 26.03808594 7.44335938 25.15820312 C7.48267578 24.26037109 7.52199219 23.36253906 7.5625 22.4375 C7.60568359 21.53580078 7.64886719 20.63410156 7.69335938 19.70507812 C7.79978142 17.47021515 7.90179988 15.23523692 8 13 C7.34 13 6.68 13 6 13 C5.34 12.34 4.68 11.68 4 11 C3.01 10.34 2.02 9.68 1 9 C1.20625 8.2575 1.4125 7.515 1.625 6.75 C2.04408751 3.67669159 1.61949011 2.57213134 0 0 Z " fill="#E88925" transform="translate(103,92)"/>
<path d="M0 0 C4.75053511 -0.07435222 9.50072887 -0.12869691 14.25170898 -0.16479492 C15.86667789 -0.17984876 17.48160613 -0.20029648 19.09643555 -0.22631836 C21.42246555 -0.26285286 23.74795341 -0.27976015 26.07421875 -0.29296875 C27.15107185 -0.31619453 27.15107185 -0.31619453 28.24967957 -0.33988953 C32.65830599 -0.34135788 35.52627779 0.21586094 39 3 C39 3.66 39 4.32 39 5 C37.80117187 4.84273438 36.60234375 4.68546875 35.3671875 4.5234375 C31.34685091 4.07463377 27.36409383 3.8862413 23.3203125 3.7890625 C21.556875 3.74652344 21.556875 3.74652344 19.7578125 3.703125 C17.31266464 3.65054117 14.86732156 3.60642669 12.421875 3.5703125 C11.25398438 3.539375 10.08609375 3.5084375 8.8828125 3.4765625 C7.29557373 3.4468335 7.29557373 3.4468335 5.67626953 3.41650391 C2.70884095 2.95468734 1.80208788 2.33983899 0 0 Z " fill="#E98828" transform="translate(49,96)"/>
<path d="M0 0 C2 2 2 2 2.375 4.4375 C2 7 2 7 0.3125 8.9375 C-2 10 -2 10 -4.6875 9.5 C-7 8 -7 8 -8 5.5625 C-8 3 -8 3 -6.875 1.1875 C-4.40774618 -0.37509409 -2.87012296 -0.36796448 0 0 Z " fill="#020202" transform="translate(293,80)"/>
<path d="M0 0 C-4.46664576 3.16987764 -8.70631965 3.97286799 -14 5 C-13.67 8.63 -13.34 12.26 -13 16 C-11.02 16.33 -9.04 16.66 -7 17 C-7 16.34 -7 15.68 -7 15 C-5.68 15 -4.36 15 -3 15 C-3 14.34 -3 13.68 -3 13 C-0.69 13 1.62 13 4 13 C-1.56068632 17.70519612 -6.97249395 18.35733082 -14 18 C-15 17 -15 17 -15.09765625 14.05859375 C-15.08605469 12.86363281 -15.07445313 11.66867188 -15.0625 10.4375 C-15.05347656 9.23996094 -15.04445313 8.04242188 -15.03515625 6.80859375 C-15.02355469 5.88175781 -15.01195313 4.95492187 -15 4 C-2.76595745 -1.38297872 -2.76595745 -1.38297872 0 0 Z " fill="#E08831" transform="translate(135,62)"/>
<path d="M0 0 C1.09570312 0.00902344 2.19140625 0.01804687 3.3203125 0.02734375 C4.16335937 0.03894531 5.00640625 0.05054687 5.875 0.0625 C3.28573669 2.65176331 1.84794721 2.43648043 -1.75 2.6875 C-2.75289063 2.76226562 -3.75578125 2.83703125 -4.7890625 2.9140625 C-5.94535156 2.98753906 -5.94535156 2.98753906 -7.125 3.0625 C-7.125 4.7125 -7.125 6.3625 -7.125 8.0625 C-7.455 8.0625 -7.785 8.0625 -8.125 8.0625 C-8.125 5.7525 -8.125 3.4425 -8.125 1.0625 C-5.36047967 -0.31976016 -3.0788637 -0.03275387 0 0 Z " fill="#E58A26" transform="translate(130.125,127.9375)"/>
<path d="M0 0 C-3 2 -3 2 -5 2 C-5.33 2.66 -5.66 3.32 -6 4 C-8.9375 5.6875 -8.9375 5.6875 -12 7 C-12.66 6.67 -13.32 6.34 -14 6 C-9.36567158 0.43880589 -7.22299847 -0.74720674 0 0 Z " fill="#EB8824" transform="translate(156,50)"/>
<path d="M0 0 C2.96909598 3.27301919 3.34354794 5.38065762 3.1875 9.75 C3.16042969 10.73484375 3.13335937 11.7196875 3.10546875 12.734375 C3.07066406 13.48203125 3.03585937 14.2296875 3 15 C1.4765625 13.60546875 1.4765625 13.60546875 0 12 C0.2981424 10.65835921 0.64141484 9.32676508 1 8 C0.80836943 5.30163445 0.40182249 2.67881661 0 0 Z " fill="#0C0C0C" transform="translate(324,122)"/>
<path d="M0 0 C3.34726719 1.11575573 3.62079748 1.51344622 5.25 4.4375 C5.8275 5.613125 6.405 6.78875 7 8 C6.67 8.66 6.34 9.32 6 10 C4.99421411 8.71283353 3.99553202 7.42011342 3 6.125 C2.443125 5.40570313 1.88625 4.68640625 1.3125 3.9453125 C0 2 0 2 0 0 Z " fill="#E69128" transform="translate(46,125)"/>
<path d="M0 0 C2.31 0 4.62 0 7 0 C4.28817788 2.60334924 3.10866187 2.99456691 -0.75 3.1875 C-1.8225 3.125625 -2.895 3.06375 -4 3 C-2.68 2.67 -1.36 2.34 0 2 C0 1.34 0 0.68 0 0 Z " fill="#EA8923" transform="translate(132,75)"/>
</svg>
